<?xml version="1.0" standalone="no"?>
<!DOCTYPE svg PUBLIC "-//W3C//DTD SVG 20010904//EN"
 "http://www.w3.org/TR/2001/REC-SVG-20010904/DTD/svg10.dtd">
<svg version="1.0" xmlns="http://www.w3.org/2000/svg"
 width="1000.000000pt" height="1000.000000pt" viewBox="0 0 1000.000000 1000.000000"
 preserveAspectRatio="xMidYMid meet">
<metadata>
Created by potrace 1.11, written by Peter Selinger 2001-2013
</metadata>
<g transform="translate(0.000000,1000.000000) scale(0.100000,-0.100000)"
fill="#000000" stroke="none">
<path d="M0 9440 l0 -460 2269 0 2269 0 4 -80 c2 -44 -1 -80 -5 -80 -4 0 -3
-9 3 -20 6 -11 7 -20 2 -20 -4 0 -5 -27 -2 -60 3 -33 2 -60 -2 -60 -5 0 -4 -9
2 -20 6 -11 7 -20 3 -20 -4 0 -6 -45 -3 -100 3 -55 1 -100 -3 -100 -4 0 -3 -9
3 -20 6 -11 7 -20 3 -20 -4 0 -6 -45 -3 -100 3 -55 1 -100 -3 -100 -4 0 -3 -9
3 -20 6 -11 7 -20 2 -20 -4 0 -5 -27 -2 -60 3 -33 3 -60 -1 -60 -4 0 -5 -9 -2
-21 6 -20 3 -21 -56 -17 -33 1 -61 -1 -61 -5 0 -4 -9 -3 -20 3 -11 6 -20 7
-20 2 0 -4 -27 -5 -60 -2 -33 3 -60 2 -60 -2 0 -5 -9 -4 -20 2 -11 6 -20 7
-20 2 0 -4 -27 -5 -60 -2 -33 3 -60 2 -60 -2 0 -5 -9 -4 -20 2 -11 6 -20 7
-20 2 0 -4 -27 -5 -60 -2 -33 3 -60 2 -60 -2 0 -5 -9 -4 -20 2 -11 6 -20 7
-20 3 0 -4 -45 -6 -100 -3 -55 3 -100 1 -100 -3 0 -4 -9 -3 -20 3 -11 6 -20 7
-20 3 0 -4 -36 -6 -80 -3 -44 3 -80 1 -80 -3 0 -4 -9 -3 -20 3 -14 8 -20 8
-20 0 0 -8 -6 -8 -20 0 -14 8 -20 8 -20 0 0 -8 -6 -8 -20 0 -11 6 -20 7 -20 3
0 -4 -36 -6 -80 -3 -44 3 -80 1 -80 -3 0 -4 -9 -3 -20 3 -11 6 -20 7 -20 3 0
-4 -36 -6 -80 -3 -44 3 -80 1 -80 -3 0 -4 -9 -3 -20 3 -14 8 -20 8 -20 0 0 -8
-6 -8 -20 0 -14 8 -20 8 -20 0 0 -8 -6 -8 -20 0 -11 6 -20 7 -20 3 0 -4 -36
-6 -80 -3 -44 3 -80 1 -80 -3 0 -4 -9 -3 -20 3 -11 6 -20 7 -20 3 0 -4 -36 -6
-80 -3 -44 3 -80 1 -80 -3 0 -4 -9 -3 -20 3 -14 8 -20 8 -20 0 0 -8 -6 -8 -20
0 -14 8 -20 8 -20 0 0 -8 -6 -8 -20 0 -11 6 -20 7 -20 3 0 -4 -36 -6 -80 -3
-44 3 -80 1 -80 -3 0 -4 -9 -3 -20 3 -11 6 -20 7 -20 3 0 -4 -36 -6 -80 -3
-44 3 -80 1 -80 -3 0 -4 -9 -3 -20 3 -14 8 -20 8 -20 0 0 -8 -6 -8 -20 0 -14
8 -20 8 -20 0 0 -8 -6 -8 -20 0 -14 8 -20 8 -20 0 0 -8 -6 -8 -20 0 -14 8 -20
8 -20 0 0 -8 -6 -8 -20 0 -14 8 -20 8 -20 0 0 -8 -6 -8 -20 0 -14 8 -20 8 -20
0 0 -8 -6 -8 -20 0 -11 6 -20 7 -20 3 0 -4 -36 -6 -80 -3 -44 3 -80 1 -80 -3
0 -4 -9 -3 -20 3 -11 6 -20 7 -20 3 0 -4 -36 -6 -80 -3 -44 3 -80 1 -80 -3 0
-4 -9 -3 -20 3 -14 8 -20 8 -20 0 0 -8 -6 -8 -20 0 -14 8 -20 8 -20 0 0 -8 -6
-8 -20 0 -14 8 -20 8 -20 0 0 -8 -6 -8 -20 0 -14 8 -20 8 -20 0 0 -8 -6 -8
-20 0 -14 8 -20 8 -20 0 0 -8 -6 -8 -20 0 -14 8 -20 8 -20 0 0 -8 -6 -8 -20 0
-11 6 -20 7 -20 3 0 -4 -36 -6 -80 -3 -44 3 -80 1 -80 -3 0 -4 -9 -3 -20 3
-11 6 -20 7 -20 3 0 -4 -36 -6 -80 -3 -44 3 -80 1 -80 -3 0 -4 -9 -3 -20 3
-14 8 -20 8 -20 0 0 -8 -6 -8 -20 0 -14 8 -20 8 -20 0 0 -8 -6 -8 -20 0 -14 8
-20 8 -20 0 0 -8 -6 -8 -20 0 -14 8 -20 8 -20 0 0 -8 -6 -8 -20 0 -14 8 -20 8
-20 0 0 -8 -6 -8 -20 0 -14 8 -20 8 -20 0 0 -8 -6 -8 -20 0 -11 6 -20 7 -20 3
0 -4 -36 -6 -80 -3 -44 3 -80 1 -80 -3 0 -4 -9 -3 -20 3 -11 6 -20 7 -20 3 0
-4 -36 -6 -80 -3 -44 3 -80 1 -80 -3 0 -4 -9 -3 -20 3 -14 8 -20 8 -20 0 0 -8
-6 -8 -20 0 -14 8 -20 8 -20 0 0 -8 -6 -8 -20 0 -14 8 -20 8 -20 0 0 -6 -4 -8
-10 -5 -7 4 -10 -1310 -10 -3934 l0 -3941 460 0 460 0 1 223 c1 122 1 226 0
230 -2 13 -4 315 -2 367 1 8 0 40 0 70 -1 30 -1 62 0 70 1 8 1 31 0 50 -1 19
-1 42 0 50 0 8 0 62 0 120 0 58 0 112 0 120 0 8 0 65 0 125 0 61 0 128 1 150
0 22 0 56 -1 75 -1 19 -1 42 0 50 0 8 0 62 0 120 0 58 0 112 0 120 0 28 0 235
-1 245 0 6 0 55 1 110 0 55 0 109 0 120 0 22 0 301 0 325 0 8 0 112 0 230 -1
118 -1 222 0 230 1 8 1 31 0 50 -1 19 -1 42 0 50 0 8 0 62 0 120 0 58 0 112 0
120 0 26 0 235 -1 245 0 8 0 338 1 550 0 11 0 85 0 165 0 80 0 152 0 160 1 8
0 40 0 70 -1 30 -1 62 0 70 1 8 1 31 0 50 -1 19 -1 42 0 50 0 8 0 62 0 120 0
58 0 112 0 120 0 8 0 65 0 125 0 61 0 128 1 150 0 22 0 56 -1 75 -1 19 -1 42
0 50 0 8 0 62 0 120 0 58 0 112 0 120 0 28 0 235 -1 245 0 6 0 55 1 110 0 55
0 109 0 120 0 25 0 304 0 325 0 8 0 97 0 198 l0 182 827 0 c455 0 829 1 831 4
2 2 20 0 39 -4 19 -4 36 -4 39 0 3 4 21 4 40 0 19 -4 37 -4 40 0 3 4 21 4 40
0 19 -4 37 -5 39 -1 2 3 165 4 361 1 196 -3 359 -2 361 1 2 4 20 3 39 -1 19
-4 37 -4 40 0 3 4 21 4 40 0 19 -4 37 -4 40 0 3 4 21 4 40 0 19 -4 37 -5 39
-1 2 3 175 5 384 3 l380 -2 4 -80 c2 -44 -1 -80 -5 -80 -4 0 -3 -9 3 -20 6
-11 7 -20 2 -20 -4 0 -5 -27 -2 -60 3 -33 2 -60 -2 -60 -5 0 -4 -9 2 -20 6
-11 7 -20 3 -20 -4 0 -6 -45 -3 -100 3 -55 1 -100 -3 -100 -4 0 -3 -9 3 -20 6
-11 7 -20 3 -20 -4 0 -6 -45 -3 -100 3 -55 1 -100 -3 -100 -4 0 -3 -9 3 -20 6
-11 7 -20 2 -20 -4 0 -5 -27 -2 -60 3 -33 2 -60 -2 -60 -5 0 -4 -9 2 -20 6
-11 7 -20 3 -20 -4 0 -6 -45 -3 -100 3 -55 1 -100 -3 -100 -4 0 -3 -9 3 -20 6
-11 7 -20 3 -20 -4 0 -6 -45 -3 -100 3 -55 1 -100 -3 -100 -4 0 -3 -9 3 -20 6
-11 7 -20 2 -20 -4 0 -5 -27 -2 -60 3 -33 2 -60 -2 -60 -5 0 -4 -9 2 -20 6
-11 7 -20 3 -20 -4 0 -6 -45 -3 -100 3 -55 1 -100 -3 -100 -4 0 -3 -9 3 -20 6
-11 7 -20 3 -20 -4 0 -6 -45 -3 -100 3 -55 1 -100 -3 -100 -4 0 -3 -9 3 -20 6
-11 7 -20 2 -20 -5 0 -6 -18 -2 -40 4 -22 3 -40 -2 -40 -5 0 -4 -9 2 -20 8
-14 8 -20 0 -20 -8 0 -8 -6 0 -20 8 -14 8 -20 0 -20 -8 0 -8 -6 0 -20 8 -14 8
-20 0 -20 -8 0 -8 -6 0 -20 8 -14 8 -20 0 -20 -8 0 -8 -6 0 -20 8 -14 8 -20 0
-20 -8 0 -8 -6 0 -20 8 -14 8 -20 0 -20 -8 0 -8 -6 0 -20 8 -14 8 -20 0 -20
-8 0 -8 -6 0 -20 8 -14 8 -20 0 -20 -8 0 -8 -6 0 -20 8 -14 8 -20 0 -20 -8 0
-8 -6 0 -20 8 -14 8 -20 0 -20 -8 0 -8 -6 0 -20 8 -14 8 -20 0 -20 -8 0 -8 -6
0 -20 8 -14 8 -20 0 -20 -8 0 -8 -6 0 -20 8 -14 8 -20 0 -20 -8 0 -8 -6 0 -20
8 -14 8 -20 0 -20 -8 0 -8 -6 0 -20 6 -11 7 -20 3 -20 -4 0 -6 -36 -3 -80 3
-44 1 -80 -3 -80 -4 0 -3 -9 3 -20 6 -11 7 -20 3 -20 -4 0 -6 -45 -3 -100 3
-55 1 -100 -3 -100 -4 0 -3 -9 3 -20 6 -11 7 -20 3 -20 -4 0 -6 -45 -3 -100 3
-55 1 -100 -3 -100 -4 0 -3 -9 3 -20 6 -11 7 -20 3 -20 -4 0 -6 -45 -3 -100 3
-55 1 -100 -3 -100 -4 0 -3 -9 3 -20 6 -11 7 -20 3 -20 -4 0 -6 -45 -3 -100 3
-55 1 -100 -3 -100 -4 0 -3 -9 3 -20 6 -11 7 -20 3 -20 -4 0 -6 -36 -3 -80 3
-44 1 -80 -3 -80 -4 0 -3 -9 3 -20 8 -14 8 -20 0 -20 -8 0 -8 -6 0 -20 8 -14
8 -20 0 -20 -8 0 -8 -6 0 -20 8 -14 8 -20 0 -20 -8 0 -8 -6 0 -20 8 -14 8 -20
0 -20 -8 0 -8 -6 0 -20 8 -14 8 -20 0 -20 -8 0 -8 -6 0 -20 8 -14 8 -20 0 -20
-8 0 -8 -6 0 -20 8 -14 8 -20 0 -20 -8 0 -8 -6 0 -20 8 -14 8 -20 0 -20 -8 0
-8 -6 0 -20 8 -14 8 -20 0 -20 -8 0 -8 -6 0 -20 8 -14 8 -20 0 -20 -8 0 -8 -6
0 -20 8 -14 8 -20 0 -20 -8 0 -8 -6 0 -20 8 -14 8 -20 0 -20 -8 0 -8 -6 0 -20
8 -14 8 -20 0 -20 -8 0 -8 -6 0 -20 8 -14 8 -20 0 -20 -8 0 -8 -6 0 -20 6 -11
7 -20 3 -20 -4 0 -6 -36 -3 -80 3 -44 1 -80 -3 -80 -4 0 -3 -9 3 -20 6 -11 7
-20 3 -20 -4 0 -6 -45 -3 -100 3 -55 1 -100 -3 -100 -4 0 -3 -9 3 -20 6 -11 7
-20 3 -20 -4 0 -6 -45 -3 -100 3 -55 1 -100 -3 -100 -4 0 -3 -9 3 -20 6 -11 7
-20 3 -20 -4 0 -6 -45 -3 -100 3 -55 1 -100 -3 -100 -4 0 -3 -9 3 -20 6 -11 7
-20 3 -20 -4 0 -6 -45 -3 -100 3 -55 1 -100 -3 -100 -4 0 -3 -9 3 -20 6 -11 7
-20 3 -20 -4 0 -6 -36 -3 -80 3 -44 1 -80 -3 -80 -4 0 -3 -9 3 -20 8 -14 8
-20 0 -20 -8 0 -8 -6 0 -20 8 -14 8 -20 0 -20 -8 0 -8 -6 0 -20 8 -14 8 -20 0
-20 -8 0 -8 -6 0 -20 8 -14 8 -20 0 -20 -8 0 -8 -6 0 -20 8 -14 8 -20 0 -20
-8 0 -8 -6 0 -20 8 -14 8 -20 0 -20 -8 0 -8 -6 0 -20 8 -14 8 -20 0 -20 -8 0
-8 -6 0 -20 8 -14 8 -20 0 -20 -8 0 -8 -6 0 -20 8 -14 8 -20 0 -20 -8 0 -8 -6
0 -20 8 -14 8 -20 0 -20 -8 0 -8 -6 0 -20 8 -14 8 -20 0 -20 -8 0 -8 -6 0 -20
8 -14 8 -20 0 -20 -8 0 -8 -6 0 -20 8 -14 8 -20 0 -20 -8 0 -8 -6 0 -20 8 -14
8 -20 0 -20 -8 0 -8 -6 0 -20 6 -11 7 -20 3 -20 -4 0 -6 -36 -3 -80 3 -44 1
-80 -3 -80 -4 0 -3 -9 3 -20 6 -11 7 -20 3 -20 -4 0 -6 -27 -5 -60 l4 -60 459
0 460 0 -3 160 c-2 88 1 160 5 160 4 0 3 9 -3 20 -6 11 -7 20 -2 20 5 0 6 18
2 40 -4 22 -3 40 2 40 5 0 4 9 -2 20 -6 11 -7 20 -2 20 5 0 6 18 2 40 -4 22
-3 40 2 40 5 0 4 9 -2 20 -8 14 -8 20 0 20 8 0 8 6 0 20 -8 14 -8 20 0 20 8 0
8 6 0 20 -6 11 -7 20 -2 20 5 0 6 18 2 40 -4 22 -3 40 2 40 5 0 4 9 -2 20 -6
11 -7 20 -2 20 5 0 6 18 2 40 -4 22 -3 40 2 40 5 0 4 9 -2 20 -6 11 -7 20 -3
20 4 0 6 90 3 200 -3 110 -1 200 3 200 4 0 3 9 -3 20 -6 11 -7 20 -2 20 5 0 6
18 2 40 -4 22 -3 40 2 40 5 0 4 9 -2 20 -6 11 -7 20 -2 20 5 0 6 18 2 40 -4
22 -3 40 2 40 5 0 4 9 -2 20 -6 11 -7 20 -2 20 5 0 6 18 2 40 -4 22 -3 40 2
40 5 0 4 9 -2 20 -6 11 -7 20 -2 20 5 0 6 18 2 40 -4 22 -3 40 2 40 5 0 4 9
-2 20 -6 11 -7 20 -3 20 4 0 6 90 3 200 -3 110 -1 200 3 200 4 0 3 9 -3 20 -6
11 -7 20 -2 20 5 0 6 18 2 40 -4 22 -3 40 2 40 5 0 4 9 -2 20 -6 11 -7 20 -2
20 5 0 6 18 2 40 -4 22 -3 40 2 40 5 0 4 9 -2 20 -8 14 -8 20 0 20 8 0 8 6 0
20 -8 14 -8 20 0 20 8 0 8 6 0 20 -6 11 -7 20 -2 20 5 0 6 18 2 40 -4 22 -3
40 2 40 5 0 4 9 -2 20 -6 11 -7 20 -2 20 5 0 6 18 2 40 -4 22 -3 40 2 40 5 0
4 9 -2 20 -6 11 -7 20 -3 20 4 0 6 90 3 200 -3 110 -1 200 3 200 4 0 3 9 -3
20 -6 11 -7 20 -2 20 5 0 6 18 2 40 -4 22 -3 40 2 40 5 0 4 9 -2 20 -6 11 -7
20 -2 20 5 0 6 18 2 40 -4 22 -3 40 2 40 5 0 4 9 -2 20 -6 11 -7 20 -2 20 5 0
6 18 2 40 -4 22 -3 40 2 40 5 0 4 9 -2 20 -6 11 -7 20 -2 20 5 0 6 18 2 40 -4
22 -3 40 2 40 5 0 4 9 -2 20 -6 11 -7 20 -3 20 4 0 6 90 3 200 -3 110 -1 200
3 200 4 0 3 9 -3 20 -6 11 -7 20 -2 20 5 0 6 18 2 40 -4 22 -3 40 2 40 5 0 4
9 -2 20 -6 11 -7 20 -2 20 5 0 6 18 2 40 -4 22 -3 40 2 40 5 0 4 9 -2 20 -8
14 -8 20 0 20 8 0 8 6 0 20 -8 14 -8 20 0 20 8 0 8 6 0 20 -6 11 -7 20 -2 20
5 0 6 18 2 40 -4 22 -3 40 2 40 5 0 4 9 -2 20 -6 11 -7 20 -2 20 5 0 6 18 2
40 -4 22 -3 40 2 40 5 0 4 9 -2 20 -6 11 -7 20 -2 20 5 0 6 18 2 40 -4 22 -3
40 2 40 5 0 4 9 -2 20 -6 11 -7 20 -2 20 5 0 6 18 2 40 -4 22 -3 40 2 40 5 0
4 9 -2 20 -6 11 -7 20 -2 20 5 0 6 18 2 40 -4 22 -3 40 2 40 5 0 4 9 -2 20 -6
11 -7 20 -2 20 5 0 6 18 2 40 -4 22 -3 40 2 40 5 0 4 9 -2 20 -6 11 -7 20 -2
20 5 0 6 18 2 40 -4 22 -3 40 2 40 5 0 4 9 -2 20 -6 11 -7 20 -2 20 4 0 5 27
2 60 -3 33 -2 60 2 60 5 0 4 9 -2 20 -6 11 -7 20 -2 20 5 0 6 18 2 40 -4 22
-3 40 2 40 5 0 4 9 -2 20 -6 11 -7 20 -2 20 5 0 6 18 2 40 -4 22 -3 40 2 40 5
0 4 9 -2 20 -6 11 -7 20 -2 20 5 0 6 18 2 40 -4 22 -3 40 2 40 5 0 4 9 -2 20
-6 11 -7 20 -2 20 5 0 6 18 2 40 -4 22 -3 40 2 40 5 0 4 9 -2 20 -6 11 -7 20
-2 20 4 0 5 27 2 60 -3 33 -2 60 2 60 5 0 4 9 -2 20 -6 11 -7 20 -2 20 5 0 6
18 2 40 -4 22 -3 40 2 40 5 0 4 9 -2 20 -6 11 -7 20 -2 20 5 0 6 18 2 40 -4
22 -3 40 2 40 5 0 4 9 -2 20 -6 11 -7 20 -2 20 5 0 6 18 2 40 -4 22 -3 40 2
40 5 0 4 9 -2 20 -6 11 -7 20 -2 20 5 0 6 18 2 40 -4 22 -3 40 2 40 5 0 4 9
-2 20 -6 11 -7 20 -2 20 4 0 5 27 2 60 -3 33 -2 60 2 60 5 0 4 9 -2 20 -6 11
-7 20 -2 20 5 0 6 18 2 40 -5 25 -4 40 3 40 6 0 5 5 -1 13 -6 7 -7 18 -2 26 4
8 6 21 3 28 -5 12 2 14 30 12 20 -2 39 -1 42 3 3 3 22 2 41 -2 19 -4 36 -4 39
0 3 4 21 4 40 0 19 -4 37 -5 39 -1 2 3 165 4 361 1 196 -3 359 -2 361 1 2 4
20 3 39 -1 19 -4 37 -4 40 0 3 4 21 4 40 0 19 -4 37 -4 40 0 3 4 21 4 40 0 19
-4 37 -5 39 -1 2 3 165 4 361 1 196 -3 359 -2 361 1 2 4 20 3 39 -1 19 -4 37
-4 40 0 3 4 21 4 40 0 19 -4 37 -4 40 0 3 4 21 4 40 0 19 -4 37 -5 39 -1 2 3
333 5 734 3 704 -2 730 -3 735 -21 2 -10 1 -24 -3 -31 -4 -7 -5 -23 -1 -36 3
-13 4 -59 1 -103 -3 -44 -2 -94 1 -111 4 -17 3 -33 -2 -36 -5 -3 -6 -10 -3
-16 4 -5 6 -54 5 -107 -2 -92 -2 -105 0 -133 0 -7 0 -54 -1 -105 -1 -50 1 -96
4 -102 4 -5 2 -12 -3 -15 -5 -3 -6 -21 -2 -38 4 -18 5 -44 4 -58 -2 -14 -3
-41 -2 -60 1 -19 1 -41 0 -47 -1 -7 -1 -20 -1 -28 0 -8 0 -23 0 -32 0 -10 0
-34 1 -53 1 -19 1 -41 0 -47 -1 -7 -1 -20 -1 -28 0 -8 0 -23 0 -32 0 -10 0
-34 1 -53 1 -19 1 -41 0 -47 -1 -7 -1 -20 -1 -28 0 -8 0 -23 0 -32 0 -10 0
-34 1 -53 1 -19 1 -41 0 -47 -1 -7 -1 -20 -1 -28 0 -8 0 -23 0 -32 0 -10 0
-34 1 -53 1 -19 1 -41 0 -47 -1 -7 -1 -20 -1 -28 0 -8 0 -23 0 -32 0 -10 0
-34 1 -53 1 -19 1 -41 0 -47 -1 -7 -1 -20 -1 -28 0 -8 0 -23 0 -32 0 -10 0
-34 1 -53 1 -19 1 -41 0 -47 -1 -7 -1 -20 -1 -28 0 -8 0 -23 0 -32 0 -10 0
-34 1 -53 1 -19 1 -42 0 -50 0 -8 0 -76 0 -150 1 -74 1 -141 0 -147 -1 -17 -2
-32 -2 -132 0 -47 -1 -87 -3 -88 -2 -2 0 -20 4 -39 5 -19 4 -37 -1 -40 -5 -3
-6 -10 -3 -16 4 -5 6 -54 5 -107 -2 -92 -2 -105 0 -133 0 -7 0 -54 -1 -105 -1
-50 1 -96 4 -102 4 -5 2 -12 -4 -16 -6 -4 -7 -11 -4 -17 4 -5 6 -54 5 -107 -2
-92 -2 -105 0 -133 0 -7 0 -54 -1 -105 -1 -50 1 -96 4 -102 4 -5 2 -12 -4 -16
-6 -4 -7 -11 -4 -17 4 -5 6 -54 5 -107 -2 -92 -2 -105 0 -133 0 -7 0 -54 -1
-105 -1 -50 1 -96 4 -102 4 -5 2 -12 -4 -16 -6 -4 -7 -11 -4 -17 4 -5 6 -54 5
-107 -2 -92 -2 -105 0 -133 0 -7 0 -54 -1 -105 -1 -50 1 -96 4 -102 4 -5 2
-12 -3 -15 -5 -3 -6 -21 -2 -38 4 -18 5 -44 4 -58 -2 -14 -3 -41 -2 -60 1 -19
1 -41 0 -47 -1 -7 -1 -20 -1 -28 0 -8 0 -23 0 -32 0 -10 0 -34 1 -53 1 -19 1
-41 0 -47 -1 -7 -1 -20 -1 -28 0 -8 0 -23 0 -32 0 -10 0 -34 1 -53 1 -19 1
-41 0 -47 -1 -7 -1 -20 -1 -28 0 -8 0 -23 0 -32 0 -10 0 -34 1 -53 1 -19 1
-41 0 -47 -1 -7 -1 -20 -1 -28 0 -8 0 -23 0 -32 0 -10 0 -34 1 -53 1 -19 1
-41 0 -47 -1 -7 -1 -20 -1 -28 0 -8 0 -23 0 -32 0 -10 0 -34 1 -53 1 -19 1
-41 0 -47 -1 -7 -1 -20 -1 -28 0 -8 0 -23 0 -32 0 -10 0 -34 1 -53 1 -19 1
-41 0 -47 -1 -7 -1 -20 -1 -28 0 -8 0 -23 0 -32 0 -10 0 -34 1 -53 1 -19 1
-42 0 -50 0 -8 0 -76 0 -150 1 -74 1 -141 0 -147 -1 -17 -2 -32 -2 -132 0 -47
-1 -87 -3 -88 -2 -2 0 -20 4 -39 5 -19 4 -37 -1 -40 -5 -3 -6 -10 -3 -16 4 -5
6 -54 5 -107 -1 -53 -2 -103 -2 -111 1 -8 1 -45 0 -82 l0 -68 460 0 461 0 0
3939 0 3939 -30 4 c-16 3 -30 1 -30 -4 0 -5 -9 -4 -20 2 -11 6 -20 7 -20 3 0
-4 -36 -6 -80 -3 -44 3 -80 1 -80 -3 0 -4 -9 -3 -20 3 -14 8 -20 8 -20 0 0 -8
-6 -8 -20 0 -14 8 -20 8 -20 0 0 -8 -6 -8 -20 0 -14 8 -20 8 -20 0 0 -8 -6 -8
-20 0 -14 8 -20 8 -20 0 0 -8 -6 -8 -20 0 -14 8 -20 8 -20 0 0 -8 -6 -8 -20 0
-14 8 -20 8 -20 0 0 -8 -6 -8 -20 0 -11 6 -20 7 -20 3 0 -4 -36 -6 -80 -3 -44
3 -80 1 -80 -3 0 -4 -9 -3 -20 3 -11 6 -20 7 -20 3 0 -4 -36 -6 -80 -3 -44 3
-80 1 -80 -3 0 -4 -9 -3 -20 3 -14 8 -20 8 -20 0 0 -8 -6 -8 -20 0 -14 8 -20
8 -20 0 0 -8 -6 -8 -20 0 -14 8 -20 8 -20 0 0 -8 -6 -8 -20 0 -14 8 -20 8 -20
0 0 -8 -6 -8 -20 0 -14 8 -20 8 -20 0 0 -8 -6 -8 -20 0 -14 8 -20 8 -20 0 0
-8 -6 -8 -20 0 -11 6 -20 7 -20 3 0 -4 -36 -6 -80 -3 -44 3 -80 1 -80 -3 0 -4
-9 -3 -20 3 -11 6 -20 7 -20 3 0 -4 -36 -6 -80 -3 -44 3 -80 1 -80 -3 0 -4 -9
-3 -20 3 -14 8 -20 8 -20 0 0 -8 -6 -8 -20 0 -14 8 -20 8 -20 0 0 -8 -6 -8
-20 0 -14 8 -20 8 -20 0 0 -8 -6 -8 -20 0 -14 8 -20 8 -20 0 0 -8 -6 -8 -20 0
-14 8 -20 8 -20 0 0 -8 -6 -8 -20 0 -14 8 -20 8 -20 0 0 -8 -6 -8 -20 0 -11 6
-20 7 -20 3 0 -4 -36 -6 -80 -3 -44 3 -80 1 -80 -3 0 -4 -9 -3 -20 3 -11 6
-20 7 -20 3 0 -4 -36 -6 -80 -3 -44 3 -80 1 -80 -3 0 -4 -9 -3 -20 3 -14 8
-20 8 -20 0 0 -8 -6 -8 -20 0 -14 8 -20 8 -20 0 0 -8 -6 -8 -20 0 -11 6 -20 7
-20 3 0 -4 -36 -6 -80 -3 -44 3 -80 1 -80 -3 0 -4 -9 -3 -20 3 -11 6 -20 7
-20 3 0 -4 -36 -6 -80 -3 -44 3 -80 1 -80 -3 0 -4 -9 -3 -20 3 -14 8 -20 8
-20 0 0 -8 -6 -8 -20 0 -14 8 -20 8 -20 0 0 -8 -6 -8 -20 0 -11 6 -20 7 -20 3
0 -4 -36 -6 -80 -3 -44 3 -80 1 -80 -3 0 -4 -9 -3 -20 3 -11 6 -20 7 -20 3 0
-4 -36 -6 -80 -3 -44 3 -80 1 -80 -3 0 -4 -9 -3 -20 3 -14 8 -20 8 -20 0 0 -8
-6 -8 -20 0 -14 8 -20 8 -20 0 0 -8 -6 -8 -20 0 -11 6 -20 7 -20 3 0 -4 -36
-6 -80 -3 -44 3 -80 1 -80 -3 0 -4 -9 -3 -20 3 -11 6 -20 7 -20 3 0 -4 -45 -6
-100 -3 -55 3 -100 1 -100 -3 0 -4 -9 -3 -20 3 -11 6 -20 7 -20 2 0 -4 -27 -5
-60 -2 -33 3 -60 2 -60 -2 0 -5 -9 -4 -20 2 -11 6 -20 7 -20 2 0 -4 -27 -5
-60 -2 -33 3 -60 2 -60 -2 0 -5 -9 -4 -20 2 -11 6 -20 7 -20 2 0 -4 -27 -5
-60 -2 -33 3 -60 2 -60 -2 0 -5 -9 -4 -20 2 -11 6 -20 7 -20 3 0 -4 -45 -6
-100 -3 -55 3 -100 1 -100 -3 0 -4 -9 -3 -20 3 -11 6 -20 7 -20 3 0 -4 -27 -6
-59 -5 -48 3 -60 7 -64 23 -3 10 -2 19 2 19 4 0 4 27 1 60 -3 33 -2 60 2 60 5
0 4 9 -2 20 -6 11 -7 20 -2 20 5 0 6 18 2 40 -4 22 -3 40 2 40 5 0 4 9 -2 20
-6 11 -7 20 -2 20 5 0 6 18 2 40 -4 22 -3 40 2 40 5 0 4 9 -2 20 -6 11 -7 20
-2 20 5 0 6 18 2 40 -4 22 -3 40 2 40 5 0 4 9 -2 20 -6 11 -7 20 -2 20 5 0 6
18 2 40 -4 22 -3 40 2 40 5 0 4 9 -2 20 -6 11 -7 20 -2 20 4 0 5 27 2 60 -3
33 -2 60 2 60 5 0 4 9 -2 20 -6 11 -7 20 -2 20 5 0 6 18 2 40 -5 25 -4 40 3
40 6 0 5 5 -1 13 -6 7 -7 18 -2 26 4 8 6 20 3 28 -4 11 371 13 2266 13 l2271
0 0 460 0 460 -5000 0 -5000 0 0 -460z"/>
</g>
</svg>
